<?xml version="1.0" encoding="utf-8"?>
<!-- Generator: Adobe Illustrator 16.0.0, SVG Export Plug-In . SVG Version: 6.00 Build 0)  -->
<!DOCTYPE svg PUBLIC "-//W3C//DTD SVG 1.1//EN" "http://www.w3.org/Graphics/SVG/1.1/DTD/svg11.dtd">
<svg version="1.1" id="Layer_1" xmlns="http://www.w3.org/2000/svg" xmlns:xlink="http://www.w3.org/1999/xlink" x="0px" y="0px"
	 width="28px" height="28px" viewBox="185.941 0 28 28" enable-background="new 185.941 0 28 28" xml:space="preserve">
<g>
	<path fill="#212121" d="M199.94,1.07c-12.929,0-12.929,5.788-12.929,12.927c0,7.144,0,12.933,12.929,12.933
		c12.931,0,12.931-5.789,12.931-12.933C212.871,6.858,212.871,1.07,199.94,1.07z M199.94,25.811c-6.61,0-11.97-5.357-11.97-11.971
		c0-6.613,5.359-11.972,11.97-11.972c6.612,0,11.972,5.358,11.972,11.972C211.912,20.452,206.553,25.811,199.94,25.811z"/>
</g>
<g>
	<path d="M196.182,11.222h-0.455c-0.006-1.168-0.029-1.977-0.074-2.427c0.533,0.02,1.369,0.044,2.508,0.073
		c0.924,0.02,1.539,0.029,1.848,0.029c0.332,0,1.102-0.015,2.309-0.044c0.875-0.02,1.514-0.039,1.914-0.059
		c-0.059,0.547-0.098,1.356-0.117,2.427h-0.469l-0.059-0.704c-0.039-0.425-0.066-0.667-0.082-0.726
		c-0.014-0.059-0.035-0.1-0.062-0.125c-0.025-0.024-0.066-0.044-0.119-0.059c-0.07-0.015-0.314-0.034-0.734-0.059
		s-0.752-0.037-0.996-0.037h-0.895c-0.049,0.469-0.074,1.102-0.074,1.897v4.285c0,0.666,0.008,1.312,0.023,1.941
		c0.014,0.465,0.049,0.74,0.105,0.828s0.146,0.152,0.271,0.195c0.125,0.041,0.477,0.066,1.059,0.076v0.469
		c-0.875-0.039-1.531-0.059-1.971-0.059c-0.191,0-0.953,0.02-2.289,0.059v-0.469c0.58-0.01,0.932-0.035,1.059-0.076
		c0.127-0.043,0.211-0.1,0.256-0.172c0.062-0.098,0.102-0.336,0.115-0.711c0-0.104,0.014-0.797,0.037-2.082v-4.27
		c0-0.205-0.004-0.43-0.014-0.674l-0.045-1.238h-1.092c-0.631,0-1.133,0.025-1.504,0.074c-0.117,0.015-0.193,0.046-0.227,0.095
		c-0.055,0.083-0.104,0.35-0.146,0.799L196.182,11.222z"/>
</g>
</svg>
