<?xml version="1.0" encoding="utf-8"?>
<!-- Generator: Adobe Illustrator 16.0.0, SVG Export Plug-In . SVG Version: 6.00 Build 0)  -->
<!DOCTYPE svg PUBLIC "-//W3C//DTD SVG 1.1//EN" "http://www.w3.org/Graphics/SVG/1.1/DTD/svg11.dtd">
<svg version="1.1" id="Layer_1" xmlns="http://www.w3.org/2000/svg" xmlns:xlink="http://www.w3.org/1999/xlink" x="0px" y="0px"
	 width="28px" height="28px" viewBox="70.829 0 28 28" enable-background="new 70.829 0 28 28" xml:space="preserve">
<g>
	<path fill="#212121" d="M84.828,1.07c-12.929,0-12.929,5.788-12.929,12.927c0,7.144,0,12.933,12.929,12.933
		c12.931,0,12.931-5.789,12.931-12.933C97.759,6.858,97.759,1.07,84.828,1.07z M84.828,25.811c-6.61,0-11.97-5.357-11.97-11.971
		c0-6.613,5.359-11.972,11.97-11.972C91.44,1.868,96.8,7.226,96.8,13.84C96.8,20.452,91.44,25.811,84.828,25.811z"/>
</g>
<g>
	<path d="M78.953,9.264V8.795l2.243,0.051l2.067-0.051v0.469c-0.578,0.01-0.93,0.036-1.054,0.077
		C82.086,9.383,82,9.439,81.951,9.513c-0.059,0.099-0.095,0.335-0.109,0.712c-0.006,0.098-0.019,0.791-0.037,2.082v1.019
		c0.963,0.034,2.137,0.052,3.52,0.052c1.061,0,1.908-0.018,2.544-0.052v-1.019c0-0.665-0.013-1.314-0.037-1.95
		c-0.015-0.465-0.05-0.739-0.105-0.825c-0.056-0.085-0.146-0.148-0.27-0.19C87.332,9.3,86.98,9.273,86.401,9.264V8.795
		c1.051,0.034,1.772,0.051,2.163,0.051c0.146,0,0.86-0.017,2.141-0.051v0.469c-0.573,0.01-0.924,0.036-1.05,0.077
		c-0.127,0.042-0.212,0.099-0.256,0.172c-0.062,0.098-0.102,0.335-0.116,0.711c-0.007,0.098-0.019,0.791-0.037,2.08v3.392
		c0,0.665,0.013,1.312,0.037,1.941c0.01,0.464,0.042,0.74,0.099,0.828c0.056,0.088,0.146,0.152,0.273,0.194
		c0.126,0.041,0.477,0.067,1.05,0.077v0.469c-0.943-0.034-1.716-0.052-2.316-0.052c-0.641,0-1.303,0.018-1.987,0.052v-0.469
		c0.582-0.01,0.936-0.036,1.06-0.077c0.125-0.041,0.212-0.099,0.261-0.172c0.063-0.098,0.1-0.334,0.109-0.709
		c0.005-0.103,0.018-0.794,0.037-2.075v-1.667c-1.369-0.033-2.407-0.051-3.116-0.051c-0.771,0-1.754,0.018-2.947,0.051v1.667
		c0,0.662,0.008,1.308,0.022,1.937c0.015,0.463,0.05,0.738,0.106,0.826c0.056,0.088,0.146,0.152,0.271,0.193
		c0.124,0.041,0.478,0.067,1.059,0.077v0.469c-0.659-0.034-1.339-0.052-2.038-0.052c-0.762,0-1.52,0.018-2.272,0.052v-0.469
		c0.574-0.01,0.924-0.036,1.051-0.077c0.126-0.042,0.214-0.099,0.263-0.172c0.058-0.098,0.095-0.335,0.109-0.711
		c0.006-0.103,0.018-0.796,0.036-2.081v-3.392c0-0.664-0.007-1.313-0.021-1.948c-0.015-0.464-0.051-0.738-0.106-0.824
		c-0.057-0.085-0.146-0.148-0.271-0.19C79.888,9.3,79.535,9.273,78.953,9.264z"/>
</g>
</svg>
