<?xml version="1.0" encoding="utf-8"?>
<!-- Generator: Adobe Illustrator 16.0.0, SVG Export Plug-In . SVG Version: 6.00 Build 0)  -->
<!DOCTYPE svg PUBLIC "-//W3C//DTD SVG 1.1//EN" "http://www.w3.org/Graphics/SVG/1.1/DTD/svg11.dtd">
<svg version="1.1" id="Layer_1" xmlns="http://www.w3.org/2000/svg" xmlns:xlink="http://www.w3.org/1999/xlink" x="0px" y="0px"
	 width="286px" height="21.5px" viewBox="0 -1.5 286 21.5" enable-background="new 0 -1.5 286 21.5" xml:space="preserve">
<rect y="-1.5" fill="#FFFFFF" width="286" height="21.5"/>
<g enable-background="new    ">
	<path fill="#020202" d="M44.397,5.635c0.695,0.97,1.042,2.046,1.042,3.227s-0.348,2.256-1.042,3.227s-1.604,1.648-2.729,2.034
		c-0.62,0.216-1.246,0.324-1.877,0.324h-9.094V3.277h9.094c0.631,0,1.257,0.108,1.877,0.323C42.793,3.986,43.703,4.665,44.397,5.635
		z M43.614,11.535c0.574-0.806,0.861-1.697,0.861-2.673c0-0.976-0.287-1.867-0.861-2.673c-0.575-0.806-1.327-1.374-2.256-1.703
		c-0.482-0.17-1.005-0.255-1.567-0.255h-8.129v9.263h8.129c0.562,0,1.085-0.085,1.567-0.255
		C42.288,12.909,43.04,12.341,43.614,11.535z"/>
	<path fill="#020202" d="M65.022,13.987c0,0.307-0.155,0.46-0.465,0.46c-0.149,0-0.276-0.057-0.379-0.171l-2.825-3.235H50.125
		l-2.722,3.235c-0.092,0.114-0.207,0.171-0.344,0.171c-0.333,0-0.5-0.165-0.5-0.494c0-0.113,0.035-0.21,0.104-0.289l8.973-10.643
		l9.266,10.643C64.982,13.755,65.022,13.862,65.022,13.987z M60.544,10.088l-4.892-5.602l-4.719,5.602H60.544z"/>
	<path fill="#020202" d="M80.954,3.855v11.153L67.175,4.792v9.28c0,0.307-0.161,0.46-0.482,0.46s-0.482-0.153-0.482-0.46V2.902
		l13.778,10.217V3.855c0-0.317,0.161-0.477,0.482-0.477C80.793,3.379,80.954,3.538,80.954,3.855z"/>
	<path fill="#020202" d="M82.814,3.379c0.321,0,0.482,0.159,0.482,0.477v10.217c0,0.307-0.161,0.46-0.482,0.46
		c-0.31,0-0.465-0.153-0.465-0.46V3.855C82.349,3.538,82.504,3.379,82.814,3.379z"/>
	<path fill="#020202" d="M85.707,9.338v4.155h13.296c0.322,0,0.482,0.159,0.482,0.477c0,0.318-0.161,0.478-0.482,0.478H84.743V3.277
		h14.261c0.322,0,0.482,0.159,0.482,0.477c0,0.318-0.161,0.477-0.482,0.477H85.707v4.155h13.296c0.322,0,0.482,0.159,0.482,0.477
		s-0.161,0.477-0.482,0.477H85.707z"/>
	<path fill="#020202" d="M115.693,14.072c0,0.307-0.161,0.46-0.482,0.46H100.95V3.855c0-0.317,0.161-0.477,0.482-0.477
		c0.321,0,0.482,0.159,0.482,0.477v9.74h13.296C115.532,13.596,115.693,13.755,115.693,14.072z"/>
	<path fill="#020202" d="M131.779,14.072c0,0.307-0.161,0.46-0.482,0.46h-14.261V3.855c0-0.317,0.161-0.477,0.482-0.477
		c0.321,0,0.482,0.159,0.482,0.477v9.74h13.296C131.619,13.596,131.779,13.755,131.779,14.072z"/>
	<path fill="#020202" d="M151.328,13.987c0,0.307-0.155,0.46-0.466,0.46c-0.149,0-0.275-0.057-0.379-0.171l-2.824-3.235H136.43
		l-2.722,3.235c-0.092,0.114-0.207,0.171-0.344,0.171c-0.333,0-0.5-0.165-0.5-0.494c0-0.113,0.035-0.21,0.104-0.289l8.973-10.643
		l9.266,10.643C151.287,13.755,151.328,13.862,151.328,13.987z M146.85,10.088l-4.892-5.602l-4.719,5.602H146.85z"/>
	<path fill="#020202" d="M172.186,11.416c0,0.829-0.299,1.541-0.896,2.137c-0.598,0.596-1.315,0.895-2.153,0.895h-11.678V3.277
		h11.678c0.838,0,1.556,0.298,2.153,0.894c0.597,0.596,0.896,1.308,0.896,2.137c0,1.101-0.477,1.953-1.43,2.554
		C171.709,9.463,172.186,10.315,172.186,11.416z M158.406,4.23v4.155h10.73c0.574,0,1.064-0.205,1.473-0.613
		c0.407-0.409,0.611-0.896,0.611-1.464c0-0.567-0.204-1.056-0.611-1.464c-0.408-0.409-0.898-0.613-1.473-0.613H158.406z
		 M170.609,12.88c0.407-0.408,0.611-0.896,0.611-1.464s-0.204-1.056-0.611-1.464c-0.408-0.409-0.898-0.613-1.473-0.613h-10.73v4.155
		h10.73C169.711,13.493,170.201,13.289,170.609,12.88z"/>
	<path fill="#020202" d="M191.769,13.987c0,0.307-0.155,0.46-0.466,0.46c-0.149,0-0.275-0.057-0.379-0.171l-2.824-3.235H176.87
		l-2.722,3.235c-0.092,0.114-0.206,0.171-0.345,0.171c-0.333,0-0.499-0.165-0.499-0.494c0-0.113,0.034-0.21,0.104-0.289
		l8.974-10.643l9.266,10.643C191.728,13.755,191.769,13.862,191.769,13.987z M187.29,10.088l-4.892-5.602l-4.719,5.602H187.29z"/>
	<path fill="#020202" d="M207.51,3.753c0,0.318-0.16,0.477-0.481,0.477h-6.407v9.739c0,0.318-0.161,0.478-0.482,0.478
		s-0.482-0.159-0.482-0.478V4.23h-6.407c-0.321,0-0.482-0.159-0.482-0.477c0-0.317,0.161-0.477,0.482-0.477h13.779
		C207.35,3.277,207.51,3.436,207.51,3.753z"/>
	<path fill="#020202" d="M223.407,14.072c0,0.307-0.161,0.46-0.482,0.46h-14.261V3.855c0-0.317,0.16-0.477,0.481-0.477
		s0.482,0.159,0.482,0.477v9.74h13.297C223.246,13.596,223.407,13.755,223.407,14.072z"/>
	<path fill="#020202" d="M239.494,14.072c0,0.307-0.161,0.46-0.482,0.46h-14.261V3.855c0-0.317,0.16-0.477,0.481-0.477
		s0.482,0.159,0.482,0.477v9.74h13.297C239.333,13.596,239.494,13.755,239.494,14.072z"/>
	<path fill="#020202" d="M241.611,9.338v4.155h13.297c0.321,0,0.482,0.159,0.482,0.477c0,0.318-0.161,0.478-0.482,0.478h-14.261
		V3.277h14.261c0.321,0,0.482,0.159,0.482,0.477c0,0.318-0.161,0.477-0.482,0.477h-13.297v4.155h13.297
		c0.321,0,0.482,0.159,0.482,0.477s-0.161,0.477-0.482,0.477H241.611z"/>
</g>
</svg>
