<?xml version="1.0" encoding="utf-8"?>
<!-- Generator: Adobe Illustrator 16.0.0, SVG Export Plug-In . SVG Version: 6.00 Build 0)  -->
<!DOCTYPE svg PUBLIC "-//W3C//DTD SVG 1.1//EN" "http://www.w3.org/Graphics/SVG/1.1/DTD/svg11.dtd">
<svg version="1.1" id="Layer_1" xmlns="http://www.w3.org/2000/svg" xmlns:xlink="http://www.w3.org/1999/xlink" x="0px" y="0px"
	 width="28px" height="28px" viewBox="148.898 0 28 28" enable-background="new 148.898 0 28 28" xml:space="preserve">
<g>
	<path fill="#212121" d="M162.897,1.07c-12.929,0-12.929,5.788-12.929,12.927c0,7.144,0,12.933,12.929,12.933
		c12.931,0,12.931-5.789,12.931-12.933C175.828,6.858,175.828,1.07,162.897,1.07z M162.897,25.811c-6.61,0-11.97-5.357-11.97-11.971
		c0-6.613,5.359-11.972,11.97-11.972c6.612,0,11.972,5.358,11.972,11.972C174.869,20.452,169.51,25.811,162.897,25.811z"/>
</g>
<g>
	<path d="M157.15,19.076v-0.469c0.517-0.004,0.855-0.043,1.018-0.117c0.069-0.029,0.118-0.076,0.147-0.139
		c0.049-0.098,0.084-0.354,0.104-0.768c0.023-0.645,0.036-1.199,0.036-1.668V9.955c0-0.161-0.01-0.266-0.029-0.314
		c-0.039-0.088-0.127-0.193-0.264-0.315c-0.088-0.078-0.189-0.127-0.304-0.149c-0.115-0.022-0.371-0.036-0.767-0.041V8.666
		c0.845,0.02,1.376,0.029,1.593,0.029c0.369,0,0.736-0.01,1.101-0.029c0.41,0.541,0.712,0.941,0.904,1.199l1.498,1.864l2.186,2.661
		c0.7,0.848,1.262,1.516,1.687,2.004c0.271,0.322,0.497,0.574,0.681,0.76v-5.339c0-0.477-0.018-1.037-0.052-1.68
		c-0.02-0.404-0.052-0.655-0.096-0.752c-0.034-0.063-0.085-0.11-0.153-0.139c-0.161-0.068-0.496-0.104-1.005-0.109V8.666
		c0.577,0.02,1.161,0.029,1.753,0.029c0.557,0,1.062-0.01,1.518-0.029v0.469c-0.512,0.005-0.849,0.042-1.011,0.11
		c-0.069,0.029-0.118,0.078-0.147,0.146c-0.049,0.093-0.084,0.349-0.104,0.769c-0.024,0.644-0.036,1.198-0.036,1.662v3.522
		c0,0.713,0.012,2.043,0.036,3.99l-0.755-0.221l-0.176-0.037c-0.029-0.01-0.057-0.023-0.081-0.043
		c-0.034-0.025-0.127-0.123-0.278-0.297c-0.405-0.465-0.704-0.814-0.895-1.053l-0.945-1.207l-5.198-6.278v5.682
		c0,0.484,0.017,1.055,0.052,1.711c0.02,0.41,0.051,0.662,0.095,0.756c0.034,0.07,0.085,0.119,0.153,0.148
		c0.162,0.07,0.496,0.105,1.005,0.111v0.469c-0.431-0.033-0.904-0.051-1.422-0.051C158.431,19.025,157.815,19.043,157.15,19.076z"/>
</g>
</svg>
