<?xml version="1.0" encoding="utf-8"?>
<!-- Generator: Adobe Illustrator 16.0.0, SVG Export Plug-In . SVG Version: 6.00 Build 0)  -->
<!DOCTYPE svg PUBLIC "-//W3C//DTD SVG 1.1//EN" "http://www.w3.org/Graphics/SVG/1.1/DTD/svg11.dtd">
<svg version="1.1" id="Layer_1" xmlns="http://www.w3.org/2000/svg" xmlns:xlink="http://www.w3.org/1999/xlink" x="0px" y="0px"
	 width="28px" height="28px" viewBox="0 0 28 28" enable-background="new 0 0 28 28" xml:space="preserve">
<g>
	<path fill="#212121" d="M13.999,1.07C1.07,1.07,1.07,6.858,1.07,13.997c0,7.144,0,12.933,12.929,12.933
		c12.931,0,12.931-5.789,12.931-12.933C26.93,6.858,26.93,1.07,13.999,1.07z M13.999,25.811c-6.61,0-11.97-5.357-11.97-11.971
		c0-6.613,5.359-11.972,11.97-11.972c6.612,0,11.972,5.358,11.972,11.972C25.971,20.452,20.611,25.811,13.999,25.811z"/>
</g>
<g>
	<path d="M8.461,19.261v-0.5c0.387-0.004,0.628-0.02,0.723-0.047c0.096-0.027,0.184-0.078,0.265-0.154
		c0.081-0.074,0.197-0.271,0.349-0.59c0.088-0.18,0.406-0.867,0.954-2.061l1.836-4.135c0.2-0.454,0.629-1.466,1.284-3.035h0.47
		l3.135,7.354c0.51,1.193,0.847,1.941,1.014,2.244c0.093,0.17,0.194,0.283,0.305,0.336c0.11,0.055,0.358,0.084,0.745,0.088v0.5
		c-0.764-0.049-1.298-0.074-1.601-0.074l-2.363,0.074v-0.5c0.548-0.008,0.88-0.025,0.997-0.051c0.117-0.023,0.197-0.059,0.238-0.105
		c0.042-0.047,0.062-0.104,0.062-0.172c0-0.107-0.034-0.248-0.103-0.418l-0.9-2.244h-4.246l-0.796,1.885
		c-0.143,0.336-0.214,0.584-0.214,0.74c0,0.068,0.02,0.125,0.06,0.168c0.054,0.064,0.137,0.107,0.249,0.133
		c0.181,0.039,0.499,0.061,0.953,0.064v0.5c-0.826-0.045-1.445-0.066-1.856-0.066C9.544,19.194,9.024,19.216,8.461,19.261z
		 M11.877,15.147h3.695l-1.825-4.413L11.877,15.147z"/>
</g>
</svg>
