<?xml version="1.0" encoding="utf-8"?>
<!-- Generator: Adobe Illustrator 16.0.0, SVG Export Plug-In . SVG Version: 6.00 Build 0)  -->
<!DOCTYPE svg PUBLIC "-//W3C//DTD SVG 1.1//EN" "http://www.w3.org/Graphics/SVG/1.1/DTD/svg11.dtd">
<svg version="1.1" id="Layer_1" xmlns="http://www.w3.org/2000/svg" xmlns:xlink="http://www.w3.org/1999/xlink" x="0px" y="0px"
	 width="28px" height="28px" viewBox="108.355 0 28 28" enable-background="new 108.355 0 28 28" xml:space="preserve">
<g>
	<path fill="#212121" d="M122.354,1.07c-12.929,0-12.929,5.788-12.929,12.927c0,7.144,0,12.933,12.929,12.933
		c12.931,0,12.931-5.789,12.931-12.933C135.285,6.858,135.285,1.07,122.354,1.07z M122.354,25.811c-6.61,0-11.97-5.357-11.97-11.971
		c0-6.613,5.359-11.972,11.97-11.972c6.612,0,11.972,5.358,11.972,11.972C134.326,20.452,128.967,25.811,122.354,25.811z"/>
</g>
<g>
	<path d="M119.939,20.602l0.021-0.506v-0.102c0-0.113-0.006-0.287-0.021-0.521l0.139-0.096c0.143,0.104,0.273,0.176,0.393,0.217
		s0.254,0.062,0.4,0.062c0.264,0,0.467-0.053,0.607-0.158c0.143-0.105,0.244-0.268,0.309-0.49c0.062-0.223,0.096-0.809,0.096-1.756
		V10.88c0-0.665-0.014-1.314-0.037-1.95c-0.01-0.464-0.043-0.739-0.098-0.825c-0.057-0.085-0.148-0.149-0.275-0.19
		c-0.125-0.042-0.475-0.067-1.049-0.077V7.361c0.771,0.034,1.496,0.051,2.17,0.051c0.713,0,1.439-0.017,2.178-0.051v0.477
		c-0.574,0.01-0.924,0.036-1.051,0.077s-0.211,0.099-0.256,0.172c-0.062,0.098-0.102,0.335-0.115,0.711
		c0,0.098-0.014,0.792-0.037,2.082v5.264c0,0.801-0.068,1.434-0.205,1.898s-0.369,0.906-0.693,1.324
		c-0.326,0.418-0.678,0.734-1.061,0.949c-0.381,0.215-0.75,0.322-1.105,0.322C120.15,20.639,120.047,20.627,119.939,20.602z"/>
</g>
</svg>
