<?xml version="1.0" encoding="utf-8"?>
<!-- Generator: Adobe Illustrator 16.0.0, SVG Export Plug-In . SVG Version: 6.00 Build 0)  -->
<!DOCTYPE svg PUBLIC "-//W3C//DTD SVG 1.1//EN" "http://www.w3.org/Graphics/SVG/1.1/DTD/svg11.dtd">
<svg version="1.1" id="Layer_1" xmlns="http://www.w3.org/2000/svg" xmlns:xlink="http://www.w3.org/1999/xlink" x="0px" y="0px"
	 width="28px" height="28px" viewBox="36.319 0 28 28" enable-background="new 36.319 0 28 28" xml:space="preserve">
<g>
	<path fill="#212121" d="M50.318,1.07C37.39,1.07,37.39,6.858,37.39,13.997c0,7.144,0,12.933,12.929,12.933
		c12.931,0,12.931-5.789,12.931-12.933C63.249,6.858,63.249,1.07,50.318,1.07z M50.318,25.811c-6.61,0-11.97-5.357-11.97-11.971
		c0-6.613,5.359-11.972,11.97-11.972c6.612,0,11.972,5.358,11.972,11.972C62.29,20.452,56.931,25.811,50.318,25.811z"/>
</g>
<g>
	<path d="M55.173,17.918L54.887,18.6c-0.572,0.289-1.132,0.498-1.679,0.627c-0.548,0.129-1.144,0.195-1.789,0.195
		c-0.758,0-1.462-0.096-2.111-0.287c-0.65-0.191-1.218-0.463-1.704-0.818c-0.486-0.354-0.884-0.752-1.191-1.191
		c-0.309-0.439-0.543-0.918-0.704-1.434c-0.161-0.518-0.242-1.082-0.242-1.699c0-1.56,0.544-2.853,1.632-3.877
		c1.087-1.024,2.571-1.537,4.453-1.537c0.445,0,0.856,0.025,1.235,0.077s0.841,0.149,1.386,0.293s0.879,0.229,1.001,0.253
		c-0.107,0.269-0.188,0.533-0.242,0.792c-0.078,0.416-0.132,0.897-0.161,1.444h-0.462L54.3,10.572
		c-0.049-0.479-0.313-0.836-0.795-1.071C53.023,9.267,52.318,9.15,51.39,9.15c-0.694,0.01-1.283,0.099-1.767,0.268
		c-0.484,0.168-0.91,0.435-1.279,0.799c-0.369,0.364-0.672,0.826-0.906,1.386s-0.354,1.262-0.359,2.108
		c0,1.481,0.453,2.673,1.357,3.573c0.904,0.902,2.099,1.354,3.585,1.354c0.669,0,1.29-0.092,1.862-0.277
		c0.391-0.125,0.779-0.324,1.165-0.596L55.173,17.918z"/>
</g>
</svg>
